<svg id="icons" xmlns="http://www.w3.org/2000/svg" viewBox="0 0 40 40"><title>diet-glutenfree</title><path d="M20,2A18,18,0,1,0,38,20,18.06,18.06,0,0,0,20,2ZM35.55,20a15.55,15.55,0,0,1-3.71,10.06L9.93,8.15A15.54,15.54,0,0,1,35.55,20ZM4.44,20A15.5,15.5,0,0,1,8.17,9.91L30.08,31.82A15.53,15.53,0,0,1,4.44,20Z"/><path d="M32,14.35a.74.74,0,0,0-1.05,0l-2,2-.08.06a3.85,3.85,0,0,1-4.68.47l2.62-2.63a.72.72,0,0,0,0-1.05.74.74,0,0,0-1.05,0L23.11,15.8a3.75,3.75,0,0,1-.62-2.06,3.65,3.65,0,0,1,1-2.49l2.17-2.17a.74.74,0,0,0,0-1.05.75.75,0,0,0-1.06,0l-2,2-.07.05-.12.14-6.21,6.2h0l0,0L13,19.55a5.22,5.22,0,0,0-.47,6.81L9.36,29.54a.75.75,0,0,0,0,1.06.75.75,0,0,0,1.06,0l3.19-3.19a5.18,5.18,0,0,0,6.79-.47L32,15.41A.75.75,0,0,0,32,14.35ZM26.22,19h.07L25,20.3a4.1,4.1,0,0,1-4.08-.15l2.24-2.24A5.16,5.16,0,0,0,26.22,19Zm-3.7,3.75a3.82,3.82,0,0,1-4.68.47L20.07,21a5,5,0,0,0,3,1l.27,0-.8.8Zm-6.36-2.63a3.7,3.7,0,0,1,1.05-2.6l.83-.82c0,.08,0,.16,0,.25a5,5,0,0,0,1,3l-2.25,2.24A3.68,3.68,0,0,1,16.16,20.08Zm5.89-3.23L19.81,19.1a3.85,3.85,0,0,1-.67-2.19,4,4,0,0,1,.45-1.8L21,13.71v0A5.16,5.16,0,0,0,22.05,16.85Zm-8,3.76.59-.59s0,0,0,.06a5.13,5.13,0,0,0,1.06,3.11L13.61,25.3A3.73,3.73,0,0,1,14.08,20.61Zm.58,5.75,2.11-2.11a5.18,5.18,0,0,0,3.11,1.05h.06l-.59.59A3.74,3.74,0,0,1,14.66,26.36Z"/></svg>