<svg id="recipe-pax" xmlns="http://www.w3.org/2000/svg" viewBox="0 0 32 32">
    <title>recipe-pax</title>
    <path d="M27.944 28.6h0.16c0.463-0.066 0.815-0.459 0.815-0.935 0-0.060-0.006-0.118-0.016-0.175l0.001 0.006c-0.873-4.605-4.205-8.257-8.553-9.577l-0.087-0.023c2.193-1.422 3.624-3.857 3.624-6.627 0-4.348-3.524-7.872-7.872-7.872s-7.872 3.524-7.872 7.872c0 2.77 1.431 5.206 3.593 6.609l0.031 0.019c-4.435 1.343-7.767 4.995-8.628 9.523l-0.012 0.077c-0.009 0.048-0.013 0.103-0.013 0.16 0 0.531 0.43 0.961 0.961 0.961 0.474 0 0.869-0.344 0.947-0.796l0.001-0.006c0.832-5.040 5.456-8.672 10.976-8.672s10.144 3.64 11 8.656c0.079 0.456 0.471 0.799 0.944 0.8h0zM10.048 11.28c0-0.005-0-0.010-0-0.016 0-3.287 2.665-5.952 5.952-5.952s5.952 2.665 5.952 5.952c0 3.287-2.665 5.952-5.952 5.952v0c-3.285-0.005-5.947-2.667-5.952-5.952v-0z"></path>
</svg>