<svg id="icons" xmlns="http://www.w3.org/2000/svg" viewBox="0 0 40 40"><title>wifi</title><path d="M29.32,26.45a1.17,1.17,0,0,0,.85-.36,1.19,1.19,0,0,0,0-1.69,13.5,13.5,0,0,0-18.94,0,1.2,1.2,0,0,0,1.68,1.71,11.09,11.09,0,0,1,15.57,0A1.21,1.21,0,0,0,29.32,26.45Z"/><path d="M33.74,22a1.2,1.2,0,0,0,.87-2A19.18,19.18,0,0,0,6.84,20a1.2,1.2,0,1,0,1.74,1.66,16.76,16.76,0,0,1,24.29,0A1.23,1.23,0,0,0,33.74,22Z"/><path d="M36,16.59A1.2,1.2,0,0,0,37.71,15,23.28,23.28,0,0,0,3.6,15a1.21,1.21,0,0,0,.06,1.7,1.18,1.18,0,0,0,.82.32,1.22,1.22,0,0,0,.88-.38,20.87,20.87,0,0,1,30.59,0Z"/><path d="M18,30.26a2.68,2.68,0,1,0,2.68-2.68A2.67,2.67,0,0,0,18,30.26Z"/></svg>